<svg width="79" height="151" viewBox="0 0 79 151" fill="none" xmlns="http://www.w3.org/2000/svg">
<g filter="url(#filter0_d_11_6)">
<mask id="path-1-outside-1_11_6" maskUnits="userSpaceOnUse" x="10" y="51" width="57" height="68" fill="black">
<rect fill="white" x="10" y="51" width="57" height="68"/>
<path d="M11.776 118V54H19.84L20.608 68.72L19.2 67.44C20.992 62.32 23.936 58.608 28.032 56.304C32.128 53.9147 36.6507 52.72 41.6 52.72C45.952 52.72 49.8773 53.616 53.376 55.408C56.96 57.2 59.8187 59.888 61.952 63.472C64.0853 66.9707 65.152 71.4507 65.152 76.912V118H55.936V80.112C55.936 73.0293 54.4427 68.0373 51.456 65.136C48.4693 62.2347 44.7573 60.784 40.32 60.784C37.248 60.784 34.2187 61.552 31.232 63.088C28.2453 64.624 25.7707 67.056 23.808 70.384C21.9307 73.712 20.992 78.064 20.992 83.44V118H11.776Z"/>
</mask>
<path d="M11.776 118V54H19.84L20.608 68.72L19.2 67.44C20.992 62.32 23.936 58.608 28.032 56.304C32.128 53.9147 36.6507 52.72 41.6 52.72C45.952 52.72 49.8773 53.616 53.376 55.408C56.96 57.2 59.8187 59.888 61.952 63.472C64.0853 66.9707 65.152 71.4507 65.152 76.912V118H55.936V80.112C55.936 73.0293 54.4427 68.0373 51.456 65.136C48.4693 62.2347 44.7573 60.784 40.32 60.784C37.248 60.784 34.2187 61.552 31.232 63.088C28.2453 64.624 25.7707 67.056 23.808 70.384C21.9307 73.712 20.992 78.064 20.992 83.44V118H11.776Z" fill="url(#paint0_linear_11_6)"/>
<path d="M11.776 118H10.776V119H11.776V118ZM11.776 54V53H10.776V54H11.776ZM19.84 54L20.8386 53.9479L20.7892 53H19.84V54ZM20.608 68.72L19.9353 69.4599L21.7332 71.0944L21.6066 68.6679L20.608 68.72ZM19.2 67.44L18.2561 67.1096L18.0374 67.7346L18.5273 68.1799L19.2 67.44ZM28.032 56.304L28.5223 57.1756L28.5291 57.1717L28.5359 57.1678L28.032 56.304ZM53.376 55.408L52.9201 56.2981L52.9288 56.3024L53.376 55.408ZM61.952 63.472L61.0927 63.9835L61.0982 63.9926L61.952 63.472ZM65.152 118V119H66.152V118H65.152ZM55.936 118H54.936V119H55.936V118ZM31.232 63.088L31.6894 63.9773V63.9773L31.232 63.088ZM23.808 70.384L22.9466 69.876L22.9417 69.8843L22.937 69.8927L23.808 70.384ZM20.992 118V119H21.992V118H20.992ZM11.776 118H12.776V54H11.776H10.776V118H11.776ZM11.776 54V55H19.84V54V53H11.776V54ZM19.84 54L18.8414 54.0521L19.6094 68.7721L20.608 68.72L21.6066 68.6679L20.8386 53.9479L19.84 54ZM20.608 68.72L21.2807 67.9801L19.8727 66.7001L19.2 67.44L18.5273 68.1799L19.9353 69.4599L20.608 68.72ZM19.2 67.44L20.1439 67.7703C21.8687 62.8423 24.6706 59.3421 28.5223 57.1756L28.032 56.304L27.5417 55.4324C23.2014 57.8739 20.1153 61.7977 18.2561 67.1096L19.2 67.44ZM28.032 56.304L28.5359 57.1678C32.4721 54.8716 36.8196 53.72 41.6 53.72V52.72V51.72C36.4817 51.72 31.7839 52.9577 27.5281 55.4402L28.032 56.304ZM41.6 52.72V53.72C45.8107 53.72 49.5771 54.5858 52.9201 56.298L53.376 55.408L53.8319 54.518C50.1775 52.6462 46.0933 51.72 41.6 51.72V52.72ZM53.376 55.408L52.9288 56.3024C56.3344 58.0052 59.053 60.5569 61.0927 63.9835L61.952 63.472L62.8113 62.9605C60.5843 59.2191 57.5856 56.3948 53.8232 54.5136L53.376 55.408ZM61.952 63.472L61.0982 63.9926C63.1091 67.2905 64.152 71.575 64.152 76.912H65.152H66.152C66.152 71.3264 65.0616 66.6508 62.8058 62.9514L61.952 63.472ZM65.152 76.912H64.152V118H65.152H66.152V76.912H65.152ZM65.152 118V117H55.936V118V119H65.152V118ZM55.936 118H56.936V80.112H55.936H54.936V118H55.936ZM55.936 80.112H56.936C56.936 72.9374 55.4319 67.6041 52.1528 64.4187L51.456 65.136L50.7592 65.8533C53.4535 68.4705 54.936 73.1213 54.936 80.112H55.936ZM51.456 65.136L52.1528 64.4187C48.9664 61.3234 44.9987 59.784 40.32 59.784V60.784V61.784C44.516 61.784 47.9723 63.146 50.7592 65.8533L51.456 65.136ZM40.32 60.784V59.784C37.0745 59.784 33.8893 60.5969 30.7747 62.1987L31.232 63.088L31.6894 63.9773C34.548 62.5071 37.4216 61.784 40.32 61.784V60.784ZM31.232 63.088L30.7747 62.1987C27.5959 63.8335 24.9905 66.4103 22.9466 69.876L23.808 70.384L24.6694 70.892C26.5508 67.7017 28.8948 65.4145 31.6894 63.9773L31.232 63.088ZM23.808 70.384L22.937 69.8927C20.9476 73.4194 19.992 77.9582 19.992 83.44H20.992H21.992C21.992 78.1698 22.9137 74.0046 24.679 70.8753L23.808 70.384ZM20.992 83.44H19.992V118H20.992H21.992V83.44H20.992ZM20.992 118V117H11.776V118V119H20.992V118Z" fill="black" mask="url(#path-1-outside-1_11_6)"/>
</g>
<g filter="url(#filter1_d_11_6)">
<path d="M53.112 110.32C50.296 110.32 48.1627 109.413 46.712 107.6C45.2613 105.765 44.536 103.045 44.536 99.44C44.536 95.8347 45.2613 93.1253 46.712 91.312C48.1627 89.4773 50.296 88.56 53.112 88.56C55.928 88.56 58.0613 89.4773 59.512 91.312C60.9627 93.1253 61.688 95.8347 61.688 99.44C61.688 103.045 60.9627 105.765 59.512 107.6C58.0613 109.413 55.928 110.32 53.112 110.32ZM53.112 106.032C54.2213 106.032 55.0213 105.531 55.512 104.528C56.0027 103.504 56.248 101.808 56.248 99.44C56.248 97.072 56.0027 95.3867 55.512 94.384C55.0213 93.36 54.2213 92.848 53.112 92.848C52.0027 92.848 51.2027 93.36 50.712 94.384C50.2213 95.3867 49.976 97.072 49.976 99.44C49.976 101.808 50.2213 103.504 50.712 104.528C51.2027 105.531 52.0027 106.032 53.112 106.032ZM68.9468 110V97.84C68.9468 97.2853 68.9468 96.7093 68.9468 96.112C68.9681 95.5147 68.9788 94.9173 68.9788 94.32C68.3174 94.9813 67.5921 95.5467 66.8028 96.016C66.0134 96.4853 65.1814 96.8053 64.3068 96.976L63.8268 92.432C64.3388 92.368 64.8934 92.2293 65.4908 92.016C66.0881 91.7813 66.6748 91.4933 67.2508 91.152C67.8481 90.8107 68.3708 90.448 68.8188 90.064C69.2881 89.6587 69.6401 89.264 69.8748 88.88H74.2588V110H68.9468Z" fill="url(#paint1_linear_11_6)"/>
</g>
<defs>
<filter id="filter0_d_11_6" x="10.776" y="51.72" width="55.376" height="71.28" filterUnits="userSpaceOnUse" color-interpolation-filters="sRGB">
<feFlood flood-opacity="0" result="BackgroundImageFix"/>
<feColorMatrix in="SourceAlpha" type="matrix" values="0 0 0 0 0 0 0 0 0 0 0 0 0 0 0 0 0 0 127 0" result="hardAlpha"/>
<feOffset dy="4"/>
<feComposite in2="hardAlpha" operator="out"/>
<feColorMatrix type="matrix" values="0 0 0 0 0 0 0 0 0 0 0 0 0 0 0 0 0 0 0.25 0"/>
<feBlend mode="normal" in2="BackgroundImageFix" result="effect1_dropShadow_11_6"/>
<feBlend mode="normal" in="SourceGraphic" in2="effect1_dropShadow_11_6" result="shape"/>
</filter>
<filter id="filter1_d_11_6" x="40.536" y="88.56" width="37.7228" height="29.76" filterUnits="userSpaceOnUse" color-interpolation-filters="sRGB">
<feFlood flood-opacity="0" result="BackgroundImageFix"/>
<feColorMatrix in="SourceAlpha" type="matrix" values="0 0 0 0 0 0 0 0 0 0 0 0 0 0 0 0 0 0 127 0" result="hardAlpha"/>
<feOffset dy="4"/>
<feGaussianBlur stdDeviation="2"/>
<feComposite in2="hardAlpha" operator="out"/>
<feColorMatrix type="matrix" values="0 0 0 0 0 0 0 0 0 0 0 0 0 0 0 0 0 0 0.25 0"/>
<feBlend mode="normal" in2="BackgroundImageFix" result="effect1_dropShadow_11_6"/>
<feBlend mode="normal" in="SourceGraphic" in2="effect1_dropShadow_11_6" result="shape"/>
</filter>
<linearGradient id="paint0_linear_11_6" x1="38.5" y1="0" x2="38.5" y2="151" gradientUnits="userSpaceOnUse">
<stop offset="1" stop-color="#101010"/>
</linearGradient>
<linearGradient id="paint1_linear_11_6" x1="60" y1="80" x2="60" y2="118" gradientUnits="userSpaceOnUse">
<stop stop-color="white"/>
<stop offset="1" stop-color="#2B2B2B"/>
</linearGradient>
</defs>
</svg>
